HIERARCHY
ROOT Hips
{
  OFFSET 53.737 55.7305 -3.30066
  CHANNELS 6 Xposition Yposition Zposition Zrotation Xrotation Yrotation
  JOINT spine
  {
    OFFSET 0 7.96568 0.458067
    CHANNELS 3 Zrotation Xrotation Yrotation
    JOINT spine1
    {
      OFFSET 0 10.2431 0
      CHANNELS 3 Zrotation Xrotation Yrotation
      JOINT spine2
      {
        OFFSET 0 9.81475 0
        CHANNELS 3 Zrotation Xrotation Yrotation
        JOINT Neck
        {
          OFFSET 0 25.1986 1.20138
          CHANNELS 3 Zrotation Xrotation Yrotation
          JOINT Head
          {
            OFFSET 0 7.61315 0
            CHANNELS 3 Zrotation Xrotation Yrotation
            End Site
            {
              OFFSET 0 18.4281 -6.07733
            }
          }
        }
        JOINT RightShoulder
        {
          OFFSET -4.1327 10.5992 -0.575451
          CHANNELS 3 Zrotation Xrotation Yrotation
          JOINT RightArm
          {
            OFFSET 0 13.9018 0
            CHANNELS 3 Zrotation Xrotation Yrotation
            JOINT RightArmRoll
            {
              OFFSET 0 7.01789 0
              CHANNELS 3 Zrotation Xrotation Yrotation
              JOINT RightForeArm
              {
                OFFSET 0 20.4406 0
                CHANNELS 3 Zrotation Xrotation Yrotation
                JOINT RightForeArmRoll
                {
                  OFFSET 0 7.87516 0
                  CHANNELS 3 Zrotation Xrotation Yrotation
                  JOINT RightHand
                  {
                    OFFSET 0 15.8037 0
                    CHANNELS 3 Zrotation Xrotation Yrotation
                    End Site
                    {
                      OFFSET 0 0 0
                    }
                  }
                }
              }
            }
          }
        }
        JOINT LeftShoulder
        {
          OFFSET 4.1327 10.5992 -0.575451
          CHANNELS 3 Zrotation Xrotation Yrotation
          JOINT LeftArm
          {
            OFFSET 0 13.9018 0
            CHANNELS 3 Zrotation Xrotation Yrotation
            JOINT LeftArmRoll
            {
              OFFSET 0 7.01788 0
              CHANNELS 3 Zrotation Xrotation Yrotation
              JOINT LeftForeArm
              {
                OFFSET 0 20.4406 0
                CHANNELS 3 Zrotation Xrotation Yrotation
                JOINT LeftForeArmRoll
                {
                  OFFSET 0 7.87516 0
                  CHANNELS 3 Zrotation Xrotation Yrotation
                  JOINT LeftHand
                  {
                    OFFSET 0 15.8037 0
                    CHANNELS 3 Zrotation Xrotation Yrotation
                    End Site
                    {
                      OFFSET 0 0 0
                    }
                  }
                }
              }
            }
          }
        }
      }
    }
  }
  JOINT RightUpLeg
  {
    OFFSET -7.06048 -1.2947 -1.0861
    CHANNELS 3 Zrotation Xrotation Yrotation
    JOINT RightUpLegRoll
    {
      OFFSET 0 18.5308 0
      CHANNELS 3 Zrotation Xrotation Yrotation
      JOINT RightLeg
      {
        OFFSET 0 -22.9476 0
        CHANNELS 3 Zrotation Xrotation Yrotation
        JOINT RightLegRoll
        {
          OFFSET 0 23.0226 0
          CHANNELS 3 Zrotation Xrotation Yrotation
          JOINT RightFoot
          {
            OFFSET 0 19.1625 0
            CHANNELS 3 Zrotation Xrotation Yrotation
            JOINT RightToeBase
            {
              OFFSET 0 16.0188 0
              CHANNELS 3 Zrotation Xrotation Yrotation
              End Site
              {
                OFFSET 0.00678979 7.75782 -0.894206
              }
            }
          }
        }
      }
    }
  }
  JOINT LeftUpLeg
  {
    OFFSET 7.06048 -1.2947 -1.0861
    CHANNELS 3 Zrotation Xrotation Yrotation
    JOINT LeftUpLegRoll
    {
      OFFSET 0 18.5309 0
      CHANNELS 3 Zrotation Xrotation Yrotation
      JOINT LeftLeg
      {
        OFFSET 0 22.9475 0
        CHANNELS 3 Zrotation Xrotation Yrotation
        JOINT LeftLegRoll
        {
          OFFSET 0 23.2355 0
          CHANNELS 3 Zrotation Xrotation Yrotation
          JOINT LeftFoot
          {
            OFFSET 0 18.9496 0
            CHANNELS 3 Zrotation Xrotation Yrotation
            JOINT LeftToeBase
            {
              OFFSET 0 16.0188 0
              CHANNELS 3 Zrotation Xrotation Yrotation
              End Site
              {
                OFFSET -0.0304289 7.75782 -0.894206
              }
            }
          }
        }
      }
    }
  }
}
MOTION
Frames: 5
Frame Time: 0.00208333
53.6111 55.1249 -2.93399 3.30398 -10.2584 2.16145 0.050253 3.74202 -0.605578 0.149088 11.4862 -1.22787 0.164751 13.1311 -1.23378 -8.88419 -4.15304 -2.16736 15.5582 27.1756 -5.64283 56.7897 -3.80808 -2.19799 117.454 35.3057 -25.4919 -7.15625e-015 3.18055e-015 -3.18055e-015 17.1686 60.0058 -13.3726 -2.93301e-005 -1.03232e-005 -3 8.02889 -4.95141 0.697651 -62.8638 -5.1384 3.4337 -111.546 30.3772 37.7229 -1.06757e-005 -2.06767e-007 -1.19238e-006 -33.811 75.8738 33.0367 2.05287e-008 -5.0175e-006 3 -8.02898 -4.95139 -0.697676 129.716 74.4013 52.815 180 7.01367e-015 178.313 -40.8343 83.9662 41.9387 1.12328e-006 -1.88177e-007 2.13797 -20.1781 66.1478 18.0041 8.31347 27.7191 -3.59632 -137.799 75.2651 -45.3521 4.5067e-006 -1.99009e-005 -1.68216 157.004 -77.46 155.229 -3.0439e-006 -4.948e-006 -2.95034 19.1408 68.0998 -19.6153 -8.13601 27.856 -0.0190229 
53.5984 55.1289 -2.93517 3.25078 -10.3385 2.12023 0.0543034 3.74654 -0.602721 0.157537 11.4952 -1.22301 0.173173 13.1401 -1.22906 -8.78739 -4.26693 -2.21222 15.4903 27.2063 -5.6631 56.8594 -3.84924 -2.23004 117.414 35.4064 -25.5424 2.78299e-014 1.27222e-014 6.36111e-015 17.1924 59.8759 -13.3507 -2.93301e-005 -1.03232e-005 -3 8.02889 -4.95141 0.697651 -62.832 -5.10567 3.413 -111.622 30.4819 37.7408 -1.06757e-005 -2.06767e-007 -1.19238e-006 -33.6489 75.6875 32.789 2.05287e-008 -5.0175e-006 3 -8.02898 -4.95139 -0.697676 130.064 74.3733 52.5099 180 7.01366e-015 178.311 -40.8791 83.9881 41.9732 1.12328e-006 -1.88177e-007 2.13808 -20.1713 66.1353 17.9944 8.3129 27.7071 -3.6066 -137.778 75.1865 -45.3279 4.5067e-006 -1.99009e-005 -1.68142 156.947 -77.4541 155.159 -3.0439e-006 -4.948e-006 -2.95103 19.1406 68.0949 -19.6118 -8.13615 27.8525 -0.0142349 
53.5911 55.119 -2.94566 3.1979 -10.4179 2.07889 0.0584263 3.75105 -0.599831 0.166168 11.5042 -1.21811 0.181778 13.1491 -1.22429 -8.69344 -4.37905 -2.25752 15.421 27.2332 -5.68378 56.9281 -3.89045 -2.26196 117.378 35.5071 -25.5922 9.54166e-015 -3.18055e-015 3.18055e-015 17.2142 59.7478 -13.3287 -2.93301e-005 -1.03232e-005 -3 8.02889 -4.95141 0.697651 -62.8011 -5.07168 3.39163 -111.695 30.5855 37.7597 -1.06757e-005 -2.06767e-007 -1.19238e-006 -33.494 75.5016 32.5487 2.05287e-008 -5.0175e-006 3 -8.02898 -4.95139 -0.697676 130.407 74.3456 52.2088 180 7.01365e-015 178.309 -40.9225 84.0097 42.0063 1.12328e-006 -1.88177e-007 2.13815 -20.1636 66.123 17.9849 8.31227 27.6942 -3.61776 -137.755 75.1089 -45.3047 4.5067e-006 -1.99009e-005 -1.68068 156.891 -77.4481 155.091 -3.0439e-006 -4.948e-006 -2.95174 19.1406 68.0902 -19.6084 -8.13627 27.849 -0.00945346 
53.5928 55.1115 -2.95669 3.14536 -10.4964 2.03743 0.0625883 3.75557 -0.596931 0.174904 11.5131 -1.2132 0.190487 13.1581 -1.21952 -8.60245 -4.4899 -2.30308 15.351 27.2571 -5.70484 56.9959 -3.93163 -2.29372 117.344 35.6076 -25.6415 -5.56597e-015 6.36111e-015 -0 17.2345 59.6214 -13.3066 -2.93301e-005 -1.03232e-005 -3 8.02889 -4.95141 0.697651 -62.7708 -5.03675 3.36973 -111.766 30.6882 37.7794 -1.06757e-005 -2.06767e-007 -1.19238e-006 -33.3455 75.3159 32.315 2.05287e-008 -5.0175e-006 3 -8.02898 -4.95139 -0.697676 130.747 74.3181 51.9115 180 7.01365e-015 178.308 -40.9646 84.0309 42.0383 1.12328e-006 -1.88177e-007 2.13817 -20.155 66.1109 17.9756 8.3116 27.6803 -3.62979 -137.732 75.032 -45.2824 4.5067e-006 -1.99009e-005 -1.67994 156.836 -77.4421 155.023 -3.0439e-006 -4.948e-006 -2.95247 19.1406 68.0855 -19.605 -8.13637 27.8456 -0.00469802 
53.5849 55.121 -2.9725 3.09316 -10.5742 1.99585 0.0667563 3.76011 -0.594039 0.183666 11.5222 -1.20831 0.199223 13.1671 -1.21477 -8.5145 -4.6 -2.34871 15.2812 27.2788 -5.72628 57.0629 -3.9727 -2.32526 117.314 35.7079 -25.6906 -8.74653e-015 -3.18055e-015 -3.18055e-015 17.2537 59.4968 -13.2847 -2.93301e-005 -1.03232e-005 -3 8.02889 -4.95141 0.697651 -62.7408 -5.00115 3.34745 -111.835 30.7897 37.7999 -1.06757e-005 -2.06767e-007 -1.19238e-006 -33.2028 75.1305 32.0872 2.05287e-008 -5.0175e-006 3 -8.02898 -4.95139 -0.697676 131.082 74.2909 51.6173 180 7.01364e-015 178.306 -41.0061 84.052 42.0696 1.12328e-006 -1.88177e-007 2.13814 -20.1453 66.099 17.9664 8.3109 27.6656 -3.64268 -137.708 74.9559 -45.2606 4.5067e-006 -1.99009e-005 -1.6792 156.782 -77.4361 154.956 -3.0439e-006 -4.948e-006 -2.95322 19.1406 68.0808 -19.6017 -8.13646 27.8421 1.18736e-005 
